<svg xmlns="http://www.w3.org/2000/svg" width="120" height="36" viewBox="0 0 120 36">
  <style>
    .logo-text {
      font-family: Arial, sans-serif;
      font-weight: bold;
      font-size: 16px;
      fill: #333;
    }
    .logo-icon {
      fill: #4a80f0;
    }
  </style>
  <g transform="translate(5, 5)">
    <path class="logo-icon" d="M13,0C5.8,0,0,5.8,0,13s5.8,13,13,13s13-5.8,13-13S20.2,0,13,0z M13,24c-6.1,0-11-4.9-11-11S6.9,2,13,2 s11,4.9,11,11S19.1,24,13,24z"/>
    <circle class="logo-icon" cx="13" cy="13" r="2.5"/>
    <path class="logo-icon" d="M13,5c-0.6,0-1-0.4-1-1V1c0-0.6,0.4-1,1-1s1,0.4,1,1v3C14,4.6,13.6,5,13,5z"/>
    <path class="logo-icon" d="M13,27c-0.6,0-1-0.4-1-1v-3c0-0.6,0.4-1,1-1s1,0.4,1,1v3C14,26.6,13.6,27,13,27z"/>
    <path class="logo-icon" d="M5,13H1c-0.6,0-1-0.4-1-1s0.4-1,1-1h4c0.6,0,1,0.4,1,1S5.6,13,5,13z"/>
    <path class="logo-icon" d="M25,13h-3c-0.6,0-1-0.4-1-1s0.4-1,1-1h3c0.6,0,1,0.4,1,1S25.6,13,25,13z"/>
    <path class="logo-icon" d="M18.9,13c0,1.5-0.5,2.8-1.4,3.7l-2.9,2.9c-0.4,0.4-1,0.4-1.4,0c-0.4-0.4-0.4-1,0-1.4l2.9-2.9 c0.6-0.6,0.9-1.5,0.9-2.4c0-1.9-1.6-3.5-3.5-3.5c-1.4,0-2.7,0.9-3.2,2.2l5.3,5.3c0.4,0.4,0.4,1,0,1.4c-0.4,0.4-1,0.4-1.4,0l-5.7-5.7 c-0.1-0.2-0.1-0.3-0.1-0.5C8.7,7.7,10.6,5.7,13,5.7C16.2,5.7,18.9,9,18.9,13z"/>
  </g>
  <text x="35" y="22" class="logo-text">骑士圈</text>
</svg>
